<?xml version="1.0" encoding="UTF-8" standalone="no"?><!DOCTYPE svg PUBLIC "-//W3C//DTD SVG 1.1//EN" "http://www.w3.org/Graphics/SVG/1.1/DTD/svg11.dtd"><!-- Generated by graphviz version 2.40.1 (20161225.0304)
 --><!-- Title: Graphe_Montpellier Pages: 1 --><svg xmlns="http://www.w3.org/2000/svg" xmlns:xlink="http://www.w3.org/1999/xlink" width="342pt" height="754pt" viewBox="0.00 0.00 342.14 754.40">
<g id="graph0" class="graph" transform="scale(1 1) rotate(0) translate(4 750.4)">
<title>Graphe_Montpellier</title>
<polygon fill="#ffffff" stroke="transparent" points="-4,4 -4,-750.4 338.1433,-750.4 338.1433,4 -4,4"/>
<!-- Place_de_la_Comedie -->
<g id="node1" class="node">
<title>Place_de_la_Comedie</title>
<ellipse fill="none" stroke="#000000" cx="90.1433" cy="-728.4" rx="90.2868" ry="18"/>
<text text-anchor="middle" x="90.1433" y="-724.2" font-family="Times,serif" font-size="14.00" fill="#000000">Place de la Comedie</text>
</g>
<!-- Le_Corum -->
<g id="node2" class="node">
<title>Le_Corum</title>
<ellipse fill="none" stroke="#000000" cx="227.1433" cy="-639.6" rx="50.422" ry="18"/>
<text text-anchor="middle" x="227.1433" y="-635.4" font-family="Times,serif" font-size="14.00" fill="#000000">Le Corum</text>
</g>
<!-- Place_de_la_Comedie&#45;&gt;Le_Corum -->
<g id="edge1" class="edge">
<title>Place_de_la_Comedie-&gt;Le_Corum</title>
<path fill="none" stroke="#000000" d="M116.8835,-711.0677C138.9792,-696.7458 170.4489,-676.3479 194.116,-661.0074"/>
<polygon fill="#000000" stroke="#000000" points="196.2811,-663.7751 202.7689,-655.3989 192.4737,-657.901 196.2811,-663.7751"/>
<text text-anchor="middle" x="173.6433" y="-679.8" font-family="Times,serif" font-size="14.00" fill="#000000">4</text>
</g>
<!-- Le_Polygone -->
<g id="node3" class="node">
<title>Le_Polygone</title>
<ellipse fill="none" stroke="#000000" cx="155.1433" cy="-550.8" rx="60.2361" ry="18"/>
<text text-anchor="middle" x="155.1433" y="-546.6" font-family="Times,serif" font-size="14.00" fill="#000000">Le Polygone</text>
</g>
<!-- Place_de_la_Comedie&#45;&gt;Le_Polygone -->
<g id="edge2" class="edge">
<title>Place_de_la_Comedie-&gt;Le_Polygone</title>
<path fill="none" stroke="#000000" d="M96.7336,-710.3934C108.1211,-679.279 131.5517,-615.2594 145.0195,-578.4614"/>
<polygon fill="#000000" stroke="#000000" points="148.3854,-579.448 148.5356,-568.8543 141.8118,-577.0421 148.3854,-579.448"/>
<text text-anchor="middle" x="131.6433" y="-635.4" font-family="Times,serif" font-size="14.00" fill="#000000">8</text>
</g>
<!-- Jardin_des_Plantes -->
<g id="node4" class="node">
<title>Jardin_des_Plantes</title>
<ellipse fill="none" stroke="#000000" cx="110.1433" cy="-462" rx="80.4538" ry="18"/>
<text text-anchor="middle" x="110.1433" y="-457.8" font-family="Times,serif" font-size="14.00" fill="#000000">Jardin des Plantes</text>
</g>
<!-- Place_de_la_Comedie&#45;&gt;Jardin_des_Plantes -->
<g id="edge3" class="edge">
<title>Place_de_la_Comedie-&gt;Jardin_des_Plantes</title>
<path fill="none" stroke="#000000" d="M87.5637,-710.174C83.1281,-675.403 75.5063,-597.3124 86.1433,-532.8 88.5591,-518.1484 93.6094,-502.4512 98.4568,-489.5697"/>
<polygon fill="#000000" stroke="#000000" points="101.8501,-490.5038 102.2467,-479.9164 95.3343,-487.9457 101.8501,-490.5038"/>
<text text-anchor="middle" x="84.6433" y="-591" font-family="Times,serif" font-size="14.00" fill="#000000">2</text>
</g>
<!-- Opera_Comedie -->
<g id="node5" class="node">
<title>Opera_Comedie</title>
<ellipse fill="none" stroke="#000000" cx="197.1433" cy="-373.2" rx="71.8105" ry="18"/>
<text text-anchor="middle" x="197.1433" y="-369" font-family="Times,serif" font-size="14.00" fill="#000000">Opera Comedie</text>
</g>
<!-- Place_de_la_Comedie&#45;&gt;Opera_Comedie -->
<g id="edge4" class="edge">
<title>Place_de_la_Comedie-&gt;Opera_Comedie</title>
<path fill="none" stroke="#000000" d="M56.6232,-711.6256C31.7545,-696.5495 2.1433,-671.8311 2.1433,-639.6 2.1433,-639.6 2.1433,-639.6 2.1433,-462 2.1433,-432.1538 78.7603,-404.834 135.9436,-388.6002"/>
<polygon fill="#000000" stroke="#000000" points="136.96,-391.9504 145.6543,-385.8957 135.0818,-385.2071 136.96,-391.9504"/>
<text text-anchor="middle" x="5.6433" y="-546.6" font-family="Times,serif" font-size="14.00" fill="#000000">6</text>
</g>
<!-- Le_Corum&#45;&gt;Le_Polygone -->
<g id="edge5" class="edge">
<title>Le_Corum-&gt;Le_Polygone</title>
<path fill="none" stroke="#000000" d="M212.9184,-622.056C202.3667,-609.0422 187.8173,-591.0979 175.959,-576.4727"/>
<polygon fill="#000000" stroke="#000000" points="178.3553,-573.8708 169.3386,-568.3076 172.918,-578.2795 178.3553,-573.8708"/>
<text text-anchor="middle" x="200.6433" y="-591" font-family="Times,serif" font-size="14.00" fill="#000000">5</text>
</g>
<!-- Le_Corum&#45;&gt;Jardin_des_Plantes -->
<g id="edge6" class="edge">
<title>Le_Corum-&gt;Jardin_des_Plantes</title>
<path fill="none" stroke="#000000" d="M231.5206,-621.5847C235.9292,-599.1646 240.0391,-560.4623 224.1433,-532.8 210.7274,-509.4532 186.1892,-492.7564 163.306,-481.4636"/>
<polygon fill="#000000" stroke="#000000" points="164.5164,-478.1659 153.9753,-477.1005 161.5512,-484.5069 164.5164,-478.1659"/>
<text text-anchor="middle" x="237.6433" y="-546.6" font-family="Times,serif" font-size="14.00" fill="#000000">7</text>
</g>
<!-- Le_Corum&#45;&gt;Opera_Comedie -->
<g id="edge7" class="edge">
<title>Le_Corum-&gt;Opera_Comedie</title>
<path fill="none" stroke="#000000" d="M239.8172,-622.1183C243.2052,-616.4829 246.406,-610.0261 248.1433,-603.6 250.092,-596.3921 248.3505,-594.2638 248.1433,-586.8 245.9201,-506.7041 245.7398,-484.0501 217.1433,-409.2 215.9695,-406.1277 214.5718,-402.9972 213.0686,-399.9285"/>
<polygon fill="#000000" stroke="#000000" points="216.1303,-398.2312 208.3605,-391.0283 209.9427,-401.5043 216.1303,-398.2312"/>
<text text-anchor="middle" x="247.6433" y="-502.2" font-family="Times,serif" font-size="14.00" fill="#000000">3</text>
</g>
<!-- Le_Polygone&#45;&gt;Jardin_des_Plantes -->
<g id="edge8" class="edge">
<title>Le_Polygone-&gt;Jardin_des_Plantes</title>
<path fill="none" stroke="#000000" d="M146.0369,-532.83C139.6935,-520.3123 131.1169,-503.3879 123.9381,-489.2218"/>
<polygon fill="#000000" stroke="#000000" points="126.8785,-487.2812 119.2362,-479.9433 120.6345,-490.4454 126.8785,-487.2812"/>
<text text-anchor="middle" x="139.6433" y="-502.2" font-family="Times,serif" font-size="14.00" fill="#000000">9</text>
</g>
<!-- Le_Polygone&#45;&gt;Opera_Comedie -->
<g id="edge9" class="edge">
<title>Le_Polygone-&gt;Opera_Comedie</title>
<path fill="none" stroke="#000000" d="M169.9738,-533.2262C180.3998,-519.6596 193.4634,-499.9002 199.1433,-480 206.5355,-454.1007 204.8965,-423.2139 202.0942,-401.3344"/>
<polygon fill="#000000" stroke="#000000" points="205.5502,-400.777 200.6596,-391.3784 198.6217,-401.7754 205.5502,-400.777"/>
<text text-anchor="middle" x="207.6433" y="-457.8" font-family="Times,serif" font-size="14.00" fill="#000000">1</text>
</g>
<!-- Jardin_des_Plantes&#45;&gt;Opera_Comedie -->
<g id="edge10" class="edge">
<title>Jardin_des_Plantes-&gt;Opera_Comedie</title>
<path fill="none" stroke="#000000" d="M127.749,-444.03C140.6872,-430.8242 158.4304,-412.7138 172.7365,-398.1118"/>
<polygon fill="#000000" stroke="#000000" points="175.3624,-400.4328 179.8606,-390.8402 170.3622,-395.5339 175.3624,-400.4328"/>
<text text-anchor="middle" x="164.6433" y="-413.4" font-family="Times,serif" font-size="14.00" fill="#000000">2</text>
</g>
<!-- Musee_Fabre -->
<g id="node6" class="node">
<title>Musee_Fabre</title>
<ellipse fill="none" stroke="#000000" cx="269.1433" cy="-284.4" rx="61.3551" ry="18"/>
<text text-anchor="middle" x="269.1433" y="-280.2" font-family="Times,serif" font-size="14.00" fill="#000000">Musee Fabre</text>
</g>
<!-- Opera_Comedie&#45;&gt;Musee_Fabre -->
<g id="edge11" class="edge">
<title>Opera_Comedie-&gt;Musee_Fabre</title>
<path fill="none" stroke="#000000" d="M211.7136,-355.23C222.2245,-342.2665 236.5675,-324.5768 248.29,-310.1191"/>
<polygon fill="#000000" stroke="#000000" points="251.261,-312.0121 254.8404,-302.0402 245.8237,-307.6035 251.261,-312.0121"/>
<text text-anchor="middle" x="242.6433" y="-324.6" font-family="Times,serif" font-size="14.00" fill="#000000">3</text>
</g>
<!-- Place_de_l&#39;Europe -->
<g id="node7" class="node">
<title>Place_de_l'Europe</title>
<ellipse fill="none" stroke="#000000" cx="166.1433" cy="-195.6" rx="79.8546" ry="18"/>
<text text-anchor="middle" x="166.1433" y="-191.4" font-family="Times,serif" font-size="14.00" fill="#000000">Place de l'Europe</text>
</g>
<!-- Opera_Comedie&#45;&gt;Place_de_l&#39;Europe -->
<g id="edge12" class="edge">
<title>Opera_Comedie-&gt;Place_de_l'Europe</title>
<path fill="none" stroke="#000000" d="M194.0003,-355.1934C188.5925,-324.212 177.4901,-260.606 171.0542,-223.7346"/>
<polygon fill="#000000" stroke="#000000" points="174.4621,-222.9035 169.2947,-213.6543 167.5664,-224.1072 174.4621,-222.9035"/>
<text text-anchor="middle" x="187.6433" y="-280.2" font-family="Times,serif" font-size="14.00" fill="#000000">4</text>
</g>
<!-- Musee_Fabre&#45;&gt;Place_de_l&#39;Europe -->
<g id="edge13" class="edge">
<title>Musee_Fabre-&gt;Place_de_l'Europe</title>
<path fill="none" stroke="#000000" d="M249.2839,-267.2785C233.67,-253.8172 211.721,-234.8942 194.2957,-219.8712"/>
<polygon fill="#000000" stroke="#000000" points="196.506,-217.1556 186.6468,-213.2768 191.9352,-222.4573 196.506,-217.1556"/>
<text text-anchor="middle" x="229.6433" y="-235.8" font-family="Times,serif" font-size="14.00" fill="#000000">5</text>
</g>
<!-- Parc_du_Peyrou -->
<g id="node8" class="node">
<title>Parc_du_Peyrou</title>
<ellipse fill="none" stroke="#000000" cx="240.1433" cy="-106.8" rx="70.0674" ry="18"/>
<text text-anchor="middle" x="240.1433" y="-102.6" font-family="Times,serif" font-size="14.00" fill="#000000">Parc du Peyrou</text>
</g>
<!-- Musee_Fabre&#45;&gt;Parc_du_Peyrou -->
<g id="edge14" class="edge">
<title>Musee_Fabre-&gt;Parc_du_Peyrou</title>
<path fill="none" stroke="#000000" d="M267.1971,-266.1936C264.8174,-244.884 260.4448,-208.566 255.1433,-177.6 252.7415,-163.5709 249.5281,-148.0943 246.6918,-135.1983"/>
<polygon fill="#000000" stroke="#000000" points="250.0227,-134.0557 244.424,-125.061 243.1916,-135.5839 250.0227,-134.0557"/>
<text text-anchor="middle" x="263.6433" y="-191.4" font-family="Times,serif" font-size="14.00" fill="#000000">6</text>
</g>
<!-- Place_Jean_Jaures -->
<g id="node9" class="node">
<title>Place_Jean_Jaures</title>
<ellipse fill="none" stroke="#000000" cx="240.1433" cy="-18" rx="78.125" ry="18"/>
<text text-anchor="middle" x="240.1433" y="-13.8" font-family="Times,serif" font-size="14.00" fill="#000000">Place Jean Jaures</text>
</g>
<!-- Musee_Fabre&#45;&gt;Place_Jean_Jaures -->
<g id="edge15" class="edge">
<title>Musee_Fabre-&gt;Place_Jean_Jaures</title>
<path fill="none" stroke="#000000" d="M281.2271,-266.7353C303.6385,-231.6164 346.944,-151.0466 319.1433,-88.8 310.4452,-69.3247 293.4489,-52.9805 277.4427,-40.9202"/>
<polygon fill="#000000" stroke="#000000" points="279.3762,-37.9997 269.2119,-35.0101 275.2934,-43.6857 279.3762,-37.9997"/>
<text text-anchor="middle" x="330.6433" y="-147" font-family="Times,serif" font-size="14.00" fill="#000000">7</text>
</g>
<!-- Place_de_l&#39;Europe&#45;&gt;Parc_du_Peyrou -->
<g id="edge16" class="edge">
<title>Place_de_l'Europe-&gt;Parc_du_Peyrou</title>
<path fill="none" stroke="#000000" d="M181.1183,-177.63C191.9212,-164.6665 206.6626,-146.9768 218.7107,-132.5191"/>
<polygon fill="#000000" stroke="#000000" points="221.73,-134.3631 225.4431,-124.4402 216.3524,-129.8818 221.73,-134.3631"/>
<text text-anchor="middle" x="212.6433" y="-147" font-family="Times,serif" font-size="14.00" fill="#000000">8</text>
</g>
<!-- Place_de_l&#39;Europe&#45;&gt;Place_Jean_Jaures -->
<g id="edge17" class="edge">
<title>Place_de_l'Europe-&gt;Place_Jean_Jaures</title>
<path fill="none" stroke="#000000" d="M158.5486,-177.639C150.4534,-155.6124 140.524,-117.6529 154.1433,-88.8 163.7206,-68.5102 182.2797,-52.0698 199.7129,-40.1569"/>
<polygon fill="#000000" stroke="#000000" points="201.6637,-43.0632 208.1363,-34.6753 197.8457,-37.1961 201.6637,-43.0632"/>
<text text-anchor="middle" x="157.6433" y="-102.6" font-family="Times,serif" font-size="14.00" fill="#000000">9</text>
</g>
<!-- Parc_du_Peyrou&#45;&gt;Place_Jean_Jaures -->
<g id="edge18" class="edge">
<title>Parc_du_Peyrou-&gt;Place_Jean_Jaures</title>
<path fill="none" stroke="#000000" d="M240.1433,-88.4006C240.1433,-76.2949 240.1433,-60.2076 240.1433,-46.4674"/>
<polygon fill="#000000" stroke="#000000" points="243.6434,-46.072 240.1433,-36.072 236.6434,-46.0721 243.6434,-46.072"/>
<text text-anchor="middle" x="243.6433" y="-58.2" font-family="Times,serif" font-size="14.00" fill="#000000">1</text>
</g>
</g>
</svg>